<?xml version="1.0" encoding="utf-8"?>
<svg xmlns="http://www.w3.org/2000/svg" id="Layer_1" data-name="Layer 1" viewBox="0 0 208 103">
  <defs>
    <style>
      .cls-1 {
        fill-rule: evenodd;
      }
    </style>
  </defs>
  <g>
    <path d="M75.83,78.5V16.92c0-.32-.26-.59-.59-.59h-12.27c-.32,0-.59.26-.59.59v61.57c0,.32.26.59.59.59h12.27c.32,0,.59-.26.59-.59h0ZM84.2,79.08h12.27c.32,0,.59-.26.59-.59v-42.76c0-.32-.26-.59-.59-.59h-12.27c-.32,0-.59.26-.59.59v42.76c0,.32.26.59.59.59ZM134.97,35.74l-8.86,25.04-8.85-25.24c-.08-.24-.3-.39-.55-.39h-13.57c-.42,0-.7.42-.54.81l17.25,42.76c.09.22.3.37.54.37h10.05c.23,0,.44-.14.54-.35l18.82-42.76c.17-.39-.11-.82-.54-.82h-13.65c-.25,0-.47.16-.55.39l-.09.19Z"/>
    <path d="M130.44,79.6h-10.05c-.44,0-.84-.27-1.02-.69l-17.25-42.76c-.14-.34-.1-.73.1-1.03.2-.3.55-.49.91-.49h13.57c.47,0,.89.3,1.04.74l8.36,23.85,8.48-23.9c.13-.39.55-.68,1.02-.68h13.65c.38,0,.72.19.93.5.2.31.24.7.09,1.04l-18.82,42.76c-.19.41-.59.66-1.01.66ZM103.14,35.67h0s-.06.1-.06.1l17.25,42.76,10.11.05,18.89-42.8-.07-.1-13.66.03-.08.07-.08.17-9.34,26.39-9.33-26.62-13.63-.05ZM96.47,79.59h-12.27c-.61,0-1.11-.5-1.11-1.1v-42.76c0-.61.5-1.11,1.11-1.11h12.27c.61,0,1.1.5,1.1,1.11v42.76c0,.61-.5,1.1-1.1,1.1ZM84.2,35.65s-.08.03-.08.08v42.76s.03.08.08.08h12.27s.07-.03.07-.08v-42.76s-.03-.08-.07-.08h-12.27ZM75.24,79.59h-12.27c-.61,0-1.11-.5-1.11-1.1V16.92c0-.61.5-1.11,1.11-1.11h12.27c.61,0,1.1.5,1.1,1.11v61.58c0,.6-.5,1.09-1.1,1.09ZM62.97,16.84s-.08.03-.08.08v61.57s.03.08.08.08h12.27s.07-.03.07-.08V16.92s-.03-.08-.07-.08h-12.27Z"/>
  </g>
  <path d="M25.45,42.56c-1.52.59-3.06.98-4.39,1.98-2.03,1.53-2.82,3.63-3.58,5.97-.08.11-.29.11-.36,0-.57-1.52-.97-3.04-1.97-4.35-1.7-2.23-3.31-2.5-5.73-3.48-.19-.08-.41-.13-.25-.4.07-.12,2.21-.82,2.55-.97,2.09-.89,3.62-2.44,4.51-4.53.34-.81.56-1.69.92-2.48l.18-.06.19.16c.71,2.25,1.49,4.26,3.39,5.76,1.33,1.05,2.89,1.48,4.45,2.06.12.07.11.22.08.34h.01Z"/>
  <path class="cls-1" d="M19.13,15.84l5.03,2.16h0l30.12,13.62s.1.05.14.08h0l.31.19c.35.29,1.05,1.14,1.01,2.2v15.48c-.02.66-.33,2.05-1.33,2.69-.04.04-.1.07-.15.09l-21.99,10.15v16.01c0,.57-.46,1.03-1.03,1.03h-12.44c-.57,0-1.03-.46-1.03-1.03v-23.91c0-.06,0-.12.01-.17.03-.37.32-1.23,1.21-1.75.03-.02.07-.04.11-.06l22.94-10.58-24.17-10.91c-.31-.14-.46-.47-.39-.78v-.51l.14-11.74c-.19-1.94.93-2.3,1.52-2.24v-.02Z"/>
  <path d="M32.94,62.16c-.61.32-.71.83-.69,1.05l-.67-1.05c.71-.13,1.97-.32,1.36,0Z"/>
  <ellipse cx="89.96" cy="23.39" rx="7.23" ry="7.53"/>
  <path d="M174.36,33.5c-13.55,0-24.53,10.57-24.53,23.61s10.98,23.62,24.53,23.62,24.53-10.57,24.53-23.62-10.98-23.61-24.53-23.61ZM174.36,67.27c-5.28,0-9.56-4.55-9.56-10.16s4.28-10.16,9.56-10.16,9.56,4.55,9.56,10.16-4.28,10.16-9.56,10.16Z"/>
</svg>
