<?xml version="1.0" standalone="no"?>
<svg xmlns="http://www.w3.org/2000/svg" width="512" height="512" viewBox="0 0 512 512"><defs><clipPath id="clip-path-dot-color"><circle cx="47.5" cy="151.5" r="6.5" transform="rotate(0,47.5,151.5)"/><circle cx="47.5" cy="190.5" r="6.5" transform="rotate(0,47.5,190.5)"/><circle cx="47.5" cy="203.5" r="6.5" transform="rotate(0,47.5,203.5)"/><circle cx="47.5" cy="216.5" r="6.5" transform="rotate(0,47.5,216.5)"/><circle cx="47.5" cy="229.5" r="6.5" transform="rotate(0,47.5,229.5)"/><circle cx="47.5" cy="281.5" r="6.5" transform="rotate(0,47.5,281.5)"/><circle cx="47.5" cy="294.5" r="6.5" transform="rotate(0,47.5,294.5)"/><circle cx="47.5" cy="333.5" r="6.5" transform="rotate(0,47.5,333.5)"/><circle cx="47.5" cy="346.5" r="6.5" transform="rotate(0,47.5,346.5)"/><circle cx="60.5" cy="164.5" r="6.5" transform="rotate(0,60.5,164.5)"/><circle cx="60.5" cy="203.5" r="6.5" transform="rotate(0,60.5,203.5)"/><circle cx="60.5" cy="229.5" r="6.5" transform="rotate(0,60.5,229.5)"/><circle cx="60.5" cy="242.5" r="6.5" transform="rotate(0,60.5,242.5)"/><circle cx="60.5" cy="255.5" r="6.5" transform="rotate(0,60.5,255.5)"/><circle cx="60.5" cy="268.5" r="6.5" transform="rotate(0,60.5,268.5)"/><circle cx="60.5" cy="307.5" r="6.5" transform="rotate(0,60.5,307.5)"/><circle cx="60.5" cy="320.5" r="6.5" transform="rotate(0,60.5,320.5)"/><circle cx="60.5" cy="346.5" r="6.5" transform="rotate(0,60.5,346.5)"/><circle cx="60.5" cy="359.5" r="6.5" transform="rotate(0,60.5,359.5)"/><circle cx="73.5" cy="151.5" r="6.5" transform="rotate(0,73.5,151.5)"/><circle cx="73.5" cy="164.5" r="6.5" transform="rotate(0,73.5,164.5)"/><circle cx="73.5" cy="177.5" r="6.5" transform="rotate(0,73.5,177.5)"/><circle cx="73.5" cy="190.5" r="6.5" transform="rotate(0,73.5,190.5)"/><circle cx="73.5" cy="203.5" r="6.5" transform="rotate(0,73.5,203.5)"/><circle cx="73.5" cy="216.5" r="6.5" transform="rotate(0,73.5,216.5)"/><circle cx="73.5" cy="268.5" r="6.5" transform="rotate(0,73.5,268.5)"/><circle cx="73.5" cy="359.5" r="6.5" transform="rotate(0,73.5,359.5)"/><circle cx="86.5" cy="151.5" r="6.5" transform="rotate(0,86.5,151.5)"/><circle cx="86.5" cy="164.5" r="6.5" transform="rotate(0,86.5,164.5)"/><circle cx="86.5" cy="190.5" r="6.5" transform="rotate(0,86.5,190.5)"/><circle cx="86.5" cy="203.5" r="6.5" transform="rotate(0,86.5,203.5)"/><circle cx="86.5" cy="242.5" r="6.5" transform="rotate(0,86.5,242.5)"/><circle cx="86.5" cy="255.5" r="6.5" transform="rotate(0,86.5,255.5)"/><circle cx="86.5" cy="268.5" r="6.5" transform="rotate(0,86.5,268.5)"/><circle cx="86.5" cy="320.5" r="6.5" transform="rotate(0,86.5,320.5)"/><circle cx="99.5" cy="177.5" r="6.5" transform="rotate(0,99.5,177.5)"/><circle cx="99.5" cy="190.5" r="6.5" transform="rotate(0,99.5,190.5)"/><circle cx="99.5" cy="229.5" r="6.5" transform="rotate(0,99.5,229.5)"/><circle cx="99.5" cy="268.5" r="6.5" transform="rotate(0,99.5,268.5)"/><circle cx="99.5" cy="294.5" r="6.5" transform="rotate(0,99.5,294.5)"/><circle cx="99.5" cy="320.5" r="6.5" transform="rotate(0,99.5,320.5)"/><circle cx="99.5" cy="346.5" r="6.5" transform="rotate(0,99.5,346.5)"/><circle cx="112.5" cy="151.5" r="6.5" transform="rotate(0,112.5,151.5)"/><circle cx="112.5" cy="164.5" r="6.5" transform="rotate(0,112.5,164.5)"/><circle cx="112.5" cy="203.5" r="6.5" transform="rotate(0,112.5,203.5)"/><circle cx="112.5" cy="216.5" r="6.5" transform="rotate(0,112.5,216.5)"/><circle cx="112.5" cy="255.5" r="6.5" transform="rotate(0,112.5,255.5)"/><circle cx="112.5" cy="268.5" r="6.5" transform="rotate(0,112.5,268.5)"/><circle cx="112.5" cy="281.5" r="6.5" transform="rotate(0,112.5,281.5)"/><circle cx="112.5" cy="307.5" r="6.5" transform="rotate(0,112.5,307.5)"/><circle cx="112.5" cy="320.5" r="6.5" transform="rotate(0,112.5,320.5)"/><circle cx="112.5" cy="359.5" r="6.5" transform="rotate(0,112.5,359.5)"/><circle cx="125.5" cy="151.5" r="6.5" transform="rotate(0,125.5,151.5)"/><circle cx="125.5" cy="177.5" r="6.5" transform="rotate(0,125.5,177.5)"/><circle cx="125.5" cy="203.5" r="6.5" transform="rotate(0,125.5,203.5)"/><circle cx="125.5" cy="229.5" r="6.5" transform="rotate(0,125.5,229.5)"/><circle cx="125.5" cy="255.5" r="6.5" transform="rotate(0,125.5,255.5)"/><circle cx="125.5" cy="281.5" r="6.5" transform="rotate(0,125.5,281.5)"/><circle cx="125.5" cy="307.5" r="6.5" transform="rotate(0,125.5,307.5)"/><circle cx="125.5" cy="333.5" r="6.5" transform="rotate(0,125.5,333.5)"/><circle cx="125.5" cy="359.5" r="6.5" transform="rotate(0,125.5,359.5)"/><circle cx="138.5" cy="151.5" r="6.5" transform="rotate(0,138.5,151.5)"/><circle cx="138.5" cy="203.5" r="6.5" transform="rotate(0,138.5,203.5)"/><circle cx="138.5" cy="216.5" r="6.5" transform="rotate(0,138.5,216.5)"/><circle cx="138.5" cy="229.5" r="6.5" transform="rotate(0,138.5,229.5)"/><circle cx="138.5" cy="242.5" r="6.5" transform="rotate(0,138.5,242.5)"/><circle cx="138.5" cy="255.5" r="6.5" transform="rotate(0,138.5,255.5)"/><circle cx="138.5" cy="268.5" r="6.5" transform="rotate(0,138.5,268.5)"/><circle cx="138.5" cy="294.5" r="6.5" transform="rotate(0,138.5,294.5)"/><circle cx="138.5" cy="307.5" r="6.5" transform="rotate(0,138.5,307.5)"/><circle cx="138.5" cy="320.5" r="6.5" transform="rotate(0,138.5,320.5)"/><circle cx="138.5" cy="346.5" r="6.5" transform="rotate(0,138.5,346.5)"/><circle cx="138.5" cy="359.5" r="6.5" transform="rotate(0,138.5,359.5)"/><circle cx="151.5" cy="60.5" r="6.5" transform="rotate(0,151.5,60.5)"/><circle cx="151.5" cy="86.5" r="6.5" transform="rotate(0,151.5,86.5)"/><circle cx="151.5" cy="112.5" r="6.5" transform="rotate(0,151.5,112.5)"/><circle cx="151.5" cy="125.5" r="6.5" transform="rotate(0,151.5,125.5)"/><circle cx="151.5" cy="138.5" r="6.5" transform="rotate(0,151.5,138.5)"/><circle cx="151.5" cy="151.5" r="6.5" transform="rotate(0,151.5,151.5)"/><circle cx="151.5" cy="164.5" r="6.5" transform="rotate(0,151.5,164.5)"/><circle cx="151.5" cy="190.5" r="6.5" transform="rotate(0,151.5,190.5)"/><circle cx="151.5" cy="229.5" r="6.5" transform="rotate(0,151.5,229.5)"/><circle cx="151.5" cy="255.5" r="6.5" transform="rotate(0,151.5,255.5)"/><circle cx="151.5" cy="281.5" r="6.5" transform="rotate(0,151.5,281.5)"/><circle cx="151.5" cy="294.5" r="6.5" transform="rotate(0,151.5,294.5)"/><circle cx="151.5" cy="320.5" r="6.5" transform="rotate(0,151.5,320.5)"/><circle cx="151.5" cy="359.5" r="6.5" transform="rotate(0,151.5,359.5)"/><circle cx="151.5" cy="372.5" r="6.5" transform="rotate(0,151.5,372.5)"/><circle cx="151.5" cy="385.5" r="6.5" transform="rotate(0,151.5,385.5)"/><circle cx="151.5" cy="398.5" r="6.5" transform="rotate(0,151.5,398.5)"/><circle cx="151.5" cy="424.5" r="6.5" transform="rotate(0,151.5,424.5)"/><circle cx="151.5" cy="437.5" r="6.5" transform="rotate(0,151.5,437.5)"/><circle cx="151.5" cy="463.5" r="6.5" transform="rotate(0,151.5,463.5)"/><circle cx="164.5" cy="60.5" r="6.5" transform="rotate(0,164.5,60.5)"/><circle cx="164.5" cy="73.5" r="6.5" transform="rotate(0,164.5,73.5)"/><circle cx="164.5" cy="86.5" r="6.5" transform="rotate(0,164.5,86.5)"/><circle cx="164.5" cy="99.5" r="6.5" transform="rotate(0,164.5,99.5)"/><circle cx="164.5" cy="112.5" r="6.5" transform="rotate(0,164.5,112.5)"/><circle cx="164.5" cy="138.5" r="6.5" transform="rotate(0,164.5,138.5)"/><circle cx="164.5" cy="177.5" r="6.5" transform="rotate(0,164.5,177.5)"/><circle cx="164.5" cy="190.5" r="6.5" transform="rotate(0,164.5,190.5)"/><circle cx="164.5" cy="216.5" r="6.5" transform="rotate(0,164.5,216.5)"/><circle cx="164.5" cy="229.5" r="6.5" transform="rotate(0,164.5,229.5)"/><circle cx="164.5" cy="307.5" r="6.5" transform="rotate(0,164.5,307.5)"/><circle cx="164.5" cy="333.5" r="6.5" transform="rotate(0,164.5,333.5)"/><circle cx="164.5" cy="359.5" r="6.5" transform="rotate(0,164.5,359.5)"/><circle cx="164.5" cy="372.5" r="6.5" transform="rotate(0,164.5,372.5)"/><circle cx="164.5" cy="385.5" r="6.5" transform="rotate(0,164.5,385.5)"/><circle cx="164.5" cy="398.5" r="6.5" transform="rotate(0,164.5,398.5)"/><circle cx="164.5" cy="450.5" r="6.5" transform="rotate(0,164.5,450.5)"/><circle cx="164.5" cy="463.5" r="6.5" transform="rotate(0,164.5,463.5)"/><circle cx="177.5" cy="47.5" r="6.5" transform="rotate(0,177.5,47.5)"/><circle cx="177.5" cy="99.5" r="6.5" transform="rotate(0,177.5,99.5)"/><circle cx="177.5" cy="112.5" r="6.5" transform="rotate(0,177.5,112.5)"/><circle cx="177.5" cy="125.5" r="6.5" transform="rotate(0,177.5,125.5)"/><circle cx="177.5" cy="138.5" r="6.5" transform="rotate(0,177.5,138.5)"/><circle cx="177.5" cy="151.5" r="6.5" transform="rotate(0,177.5,151.5)"/><circle cx="177.5" cy="164.5" r="6.5" transform="rotate(0,177.5,164.5)"/><circle cx="177.5" cy="177.5" r="6.5" transform="rotate(0,177.5,177.5)"/><circle cx="177.5" cy="216.5" r="6.5" transform="rotate(0,177.5,216.5)"/><circle cx="177.5" cy="229.5" r="6.5" transform="rotate(0,177.5,229.5)"/><circle cx="177.5" cy="255.5" r="6.5" transform="rotate(0,177.5,255.5)"/><circle cx="177.5" cy="268.5" r="6.5" transform="rotate(0,177.5,268.5)"/><circle cx="177.5" cy="294.5" r="6.5" transform="rotate(0,177.5,294.5)"/><circle cx="177.5" cy="307.5" r="6.5" transform="rotate(0,177.5,307.5)"/><circle cx="177.5" cy="320.5" r="6.5" transform="rotate(0,177.5,320.5)"/><circle cx="177.5" cy="333.5" r="6.5" transform="rotate(0,177.5,333.5)"/><circle cx="177.5" cy="359.5" r="6.5" transform="rotate(0,177.5,359.5)"/><circle cx="177.5" cy="398.5" r="6.5" transform="rotate(0,177.5,398.5)"/><circle cx="177.5" cy="411.5" r="6.5" transform="rotate(0,177.5,411.5)"/><circle cx="177.5" cy="437.5" r="6.5" transform="rotate(0,177.5,437.5)"/><circle cx="177.5" cy="463.5" r="6.5" transform="rotate(0,177.5,463.5)"/><circle cx="190.5" cy="73.5" r="6.5" transform="rotate(0,190.5,73.5)"/><circle cx="190.5" cy="112.5" r="6.5" transform="rotate(0,190.5,112.5)"/><circle cx="190.5" cy="164.5" r="6.5" transform="rotate(0,190.5,164.5)"/><circle cx="190.5" cy="216.5" r="6.5" transform="rotate(0,190.5,216.5)"/><circle cx="190.5" cy="255.5" r="6.5" transform="rotate(0,190.5,255.5)"/><circle cx="190.5" cy="268.5" r="6.5" transform="rotate(0,190.5,268.5)"/><circle cx="190.5" cy="346.5" r="6.5" transform="rotate(0,190.5,346.5)"/><circle cx="190.5" cy="359.5" r="6.5" transform="rotate(0,190.5,359.5)"/><circle cx="190.5" cy="385.5" r="6.5" transform="rotate(0,190.5,385.5)"/><circle cx="190.5" cy="411.5" r="6.5" transform="rotate(0,190.5,411.5)"/><circle cx="190.5" cy="424.5" r="6.5" transform="rotate(0,190.5,424.5)"/><circle cx="203.5" cy="47.5" r="6.5" transform="rotate(0,203.5,47.5)"/><circle cx="203.5" cy="60.5" r="6.5" transform="rotate(0,203.5,60.5)"/><circle cx="203.5" cy="73.5" r="6.5" transform="rotate(0,203.5,73.5)"/><circle cx="203.5" cy="112.5" r="6.5" transform="rotate(0,203.5,112.5)"/><circle cx="203.5" cy="125.5" r="6.5" transform="rotate(0,203.5,125.5)"/><circle cx="203.5" cy="151.5" r="6.5" transform="rotate(0,203.5,151.5)"/><circle cx="203.5" cy="203.5" r="6.5" transform="rotate(0,203.5,203.5)"/><circle cx="203.5" cy="216.5" r="6.5" transform="rotate(0,203.5,216.5)"/><circle cx="203.5" cy="255.5" r="6.5" transform="rotate(0,203.5,255.5)"/><circle cx="203.5" cy="294.5" r="6.5" transform="rotate(0,203.5,294.5)"/><circle cx="203.5" cy="346.5" r="6.5" transform="rotate(0,203.5,346.5)"/><circle cx="203.5" cy="359.5" r="6.5" transform="rotate(0,203.5,359.5)"/><circle cx="203.5" cy="372.5" r="6.5" transform="rotate(0,203.5,372.5)"/><circle cx="203.5" cy="385.5" r="6.5" transform="rotate(0,203.5,385.5)"/><circle cx="203.5" cy="398.5" r="6.5" transform="rotate(0,203.5,398.5)"/><circle cx="203.5" cy="424.5" r="6.5" transform="rotate(0,203.5,424.5)"/><circle cx="203.5" cy="463.5" r="6.5" transform="rotate(0,203.5,463.5)"/><circle cx="216.5" cy="73.5" r="6.5" transform="rotate(0,216.5,73.5)"/><circle cx="216.5" cy="86.5" r="6.5" transform="rotate(0,216.5,86.5)"/><circle cx="216.5" cy="112.5" r="6.5" transform="rotate(0,216.5,112.5)"/><circle cx="216.5" cy="203.5" r="6.5" transform="rotate(0,216.5,203.5)"/><circle cx="216.5" cy="216.5" r="6.5" transform="rotate(0,216.5,216.5)"/><circle cx="216.5" cy="229.5" r="6.5" transform="rotate(0,216.5,229.5)"/><circle cx="216.5" cy="268.5" r="6.5" transform="rotate(0,216.5,268.5)"/><circle cx="216.5" cy="320.5" r="6.5" transform="rotate(0,216.5,320.5)"/><circle cx="216.5" cy="333.5" r="6.5" transform="rotate(0,216.5,333.5)"/><circle cx="216.5" cy="359.5" r="6.5" transform="rotate(0,216.5,359.5)"/><circle cx="216.5" cy="372.5" r="6.5" transform="rotate(0,216.5,372.5)"/><circle cx="216.5" cy="385.5" r="6.5" transform="rotate(0,216.5,385.5)"/><circle cx="216.5" cy="398.5" r="6.5" transform="rotate(0,216.5,398.5)"/><circle cx="216.5" cy="411.5" r="6.5" transform="rotate(0,216.5,411.5)"/><circle cx="216.5" cy="437.5" r="6.5" transform="rotate(0,216.5,437.5)"/><circle cx="216.5" cy="450.5" r="6.5" transform="rotate(0,216.5,450.5)"/><circle cx="216.5" cy="463.5" r="6.5" transform="rotate(0,216.5,463.5)"/><circle cx="229.5" cy="47.5" r="6.5" transform="rotate(0,229.5,47.5)"/><circle cx="229.5" cy="60.5" r="6.5" transform="rotate(0,229.5,60.5)"/><circle cx="229.5" cy="73.5" r="6.5" transform="rotate(0,229.5,73.5)"/><circle cx="229.5" cy="112.5" r="6.5" transform="rotate(0,229.5,112.5)"/><circle cx="229.5" cy="125.5" r="6.5" transform="rotate(0,229.5,125.5)"/><circle cx="229.5" cy="138.5" r="6.5" transform="rotate(0,229.5,138.5)"/><circle cx="229.5" cy="151.5" r="6.5" transform="rotate(0,229.5,151.5)"/><circle cx="229.5" cy="177.5" r="6.5" transform="rotate(0,229.5,177.5)"/><circle cx="229.5" cy="190.5" r="6.5" transform="rotate(0,229.5,190.5)"/><circle cx="229.5" cy="216.5" r="6.5" transform="rotate(0,229.5,216.5)"/><circle cx="229.5" cy="229.5" r="6.5" transform="rotate(0,229.5,229.5)"/><circle cx="229.5" cy="242.5" r="6.5" transform="rotate(0,229.5,242.5)"/><circle cx="229.5" cy="268.5" r="6.5" transform="rotate(0,229.5,268.5)"/><circle cx="229.5" cy="307.5" r="6.5" transform="rotate(0,229.5,307.5)"/><circle cx="229.5" cy="320.5" r="6.5" transform="rotate(0,229.5,320.5)"/><circle cx="229.5" cy="333.5" r="6.5" transform="rotate(0,229.5,333.5)"/><circle cx="229.5" cy="346.5" r="6.5" transform="rotate(0,229.5,346.5)"/><circle cx="229.5" cy="372.5" r="6.5" transform="rotate(0,229.5,372.5)"/><circle cx="229.5" cy="385.5" r="6.5" transform="rotate(0,229.5,385.5)"/><circle cx="229.5" cy="398.5" r="6.5" transform="rotate(0,229.5,398.5)"/><circle cx="229.5" cy="411.5" r="6.5" transform="rotate(0,229.5,411.5)"/><circle cx="229.5" cy="450.5" r="6.5" transform="rotate(0,229.5,450.5)"/><circle cx="242.5" cy="47.5" r="6.5" transform="rotate(0,242.5,47.5)"/><circle cx="242.5" cy="60.5" r="6.5" transform="rotate(0,242.5,60.5)"/><circle cx="242.5" cy="73.5" r="6.5" transform="rotate(0,242.5,73.5)"/><circle cx="242.5" cy="112.5" r="6.5" transform="rotate(0,242.5,112.5)"/><circle cx="242.5" cy="138.5" r="6.5" transform="rotate(0,242.5,138.5)"/><circle cx="242.5" cy="151.5" r="6.5" transform="rotate(0,242.5,151.5)"/><circle cx="242.5" cy="177.5" r="6.5" transform="rotate(0,242.5,177.5)"/><circle cx="242.5" cy="203.5" r="6.5" transform="rotate(0,242.5,203.5)"/><circle cx="242.5" cy="294.5" r="6.5" transform="rotate(0,242.5,294.5)"/><circle cx="242.5" cy="320.5" r="6.5" transform="rotate(0,242.5,320.5)"/><circle cx="242.5" cy="333.5" r="6.5" transform="rotate(0,242.5,333.5)"/><circle cx="242.5" cy="346.5" r="6.5" transform="rotate(0,242.5,346.5)"/><circle cx="242.5" cy="359.5" r="6.5" transform="rotate(0,242.5,359.5)"/><circle cx="242.5" cy="385.5" r="6.5" transform="rotate(0,242.5,385.5)"/><circle cx="242.5" cy="450.5" r="6.5" transform="rotate(0,242.5,450.5)"/><circle cx="255.5" cy="99.5" r="6.5" transform="rotate(0,255.5,99.5)"/><circle cx="255.5" cy="112.5" r="6.5" transform="rotate(0,255.5,112.5)"/><circle cx="255.5" cy="125.5" r="6.5" transform="rotate(0,255.5,125.5)"/><circle cx="255.5" cy="138.5" r="6.5" transform="rotate(0,255.5,138.5)"/><circle cx="255.5" cy="164.5" r="6.5" transform="rotate(0,255.5,164.5)"/><circle cx="255.5" cy="177.5" r="6.5" transform="rotate(0,255.5,177.5)"/><circle cx="255.5" cy="203.5" r="6.5" transform="rotate(0,255.5,203.5)"/><circle cx="255.5" cy="229.5" r="6.5" transform="rotate(0,255.5,229.5)"/><circle cx="255.5" cy="268.5" r="6.5" transform="rotate(0,255.5,268.5)"/><circle cx="255.5" cy="281.5" r="6.5" transform="rotate(0,255.5,281.5)"/><circle cx="255.5" cy="294.5" r="6.5" transform="rotate(0,255.5,294.5)"/><circle cx="255.5" cy="307.5" r="6.5" transform="rotate(0,255.5,307.5)"/><circle cx="255.5" cy="320.5" r="6.5" transform="rotate(0,255.5,320.5)"/><circle cx="255.5" cy="333.5" r="6.5" transform="rotate(0,255.5,333.5)"/><circle cx="255.5" cy="359.5" r="6.5" transform="rotate(0,255.5,359.5)"/><circle cx="255.5" cy="385.5" r="6.5" transform="rotate(0,255.5,385.5)"/><circle cx="255.5" cy="411.5" r="6.5" transform="rotate(0,255.5,411.5)"/><circle cx="255.5" cy="424.5" r="6.5" transform="rotate(0,255.5,424.5)"/><circle cx="255.5" cy="450.5" r="6.5" transform="rotate(0,255.5,450.5)"/><circle cx="268.5" cy="60.5" r="6.5" transform="rotate(0,268.5,60.5)"/><circle cx="268.5" cy="73.5" r="6.5" transform="rotate(0,268.5,73.5)"/><circle cx="268.5" cy="99.5" r="6.5" transform="rotate(0,268.5,99.5)"/><circle cx="268.5" cy="112.5" r="6.5" transform="rotate(0,268.5,112.5)"/><circle cx="268.5" cy="164.5" r="6.5" transform="rotate(0,268.5,164.5)"/><circle cx="268.5" cy="177.5" r="6.5" transform="rotate(0,268.5,177.5)"/><circle cx="268.5" cy="216.5" r="6.5" transform="rotate(0,268.5,216.5)"/><circle cx="268.5" cy="255.5" r="6.5" transform="rotate(0,268.5,255.5)"/><circle cx="268.5" cy="281.5" r="6.5" transform="rotate(0,268.5,281.5)"/><circle cx="268.5" cy="307.5" r="6.5" transform="rotate(0,268.5,307.5)"/><circle cx="268.5" cy="320.5" r="6.5" transform="rotate(0,268.5,320.5)"/><circle cx="268.5" cy="346.5" r="6.5" transform="rotate(0,268.5,346.5)"/><circle cx="268.5" cy="398.5" r="6.5" transform="rotate(0,268.5,398.5)"/><circle cx="268.5" cy="424.5" r="6.5" transform="rotate(0,268.5,424.5)"/><circle cx="281.5" cy="86.5" r="6.5" transform="rotate(0,281.5,86.5)"/><circle cx="281.5" cy="112.5" r="6.5" transform="rotate(0,281.5,112.5)"/><circle cx="281.5" cy="125.5" r="6.5" transform="rotate(0,281.5,125.5)"/><circle cx="281.5" cy="164.5" r="6.5" transform="rotate(0,281.5,164.5)"/><circle cx="281.5" cy="242.5" r="6.5" transform="rotate(0,281.5,242.5)"/><circle cx="281.5" cy="255.5" r="6.5" transform="rotate(0,281.5,255.5)"/><circle cx="281.5" cy="268.5" r="6.5" transform="rotate(0,281.5,268.5)"/><circle cx="281.5" cy="333.5" r="6.5" transform="rotate(0,281.5,333.5)"/><circle cx="281.5" cy="385.5" r="6.5" transform="rotate(0,281.5,385.5)"/><circle cx="281.5" cy="437.5" r="6.5" transform="rotate(0,281.5,437.5)"/><circle cx="281.5" cy="450.5" r="6.5" transform="rotate(0,281.5,450.5)"/><circle cx="281.5" cy="463.5" r="6.5" transform="rotate(0,281.5,463.5)"/><circle cx="294.5" cy="60.5" r="6.5" transform="rotate(0,294.5,60.5)"/><circle cx="294.5" cy="73.5" r="6.5" transform="rotate(0,294.5,73.5)"/><circle cx="294.5" cy="99.5" r="6.5" transform="rotate(0,294.5,99.5)"/><circle cx="294.5" cy="112.5" r="6.5" transform="rotate(0,294.5,112.5)"/><circle cx="294.5" cy="138.5" r="6.5" transform="rotate(0,294.5,138.5)"/><circle cx="294.5" cy="177.5" r="6.5" transform="rotate(0,294.5,177.5)"/><circle cx="294.5" cy="190.5" r="6.5" transform="rotate(0,294.5,190.5)"/><circle cx="294.5" cy="216.5" r="6.5" transform="rotate(0,294.5,216.5)"/><circle cx="294.5" cy="229.5" r="6.5" transform="rotate(0,294.5,229.5)"/><circle cx="294.5" cy="255.5" r="6.5" transform="rotate(0,294.5,255.5)"/><circle cx="294.5" cy="268.5" r="6.5" transform="rotate(0,294.5,268.5)"/><circle cx="294.5" cy="294.5" r="6.5" transform="rotate(0,294.5,294.5)"/><circle cx="294.5" cy="320.5" r="6.5" transform="rotate(0,294.5,320.5)"/><circle cx="294.5" cy="359.5" r="6.5" transform="rotate(0,294.5,359.5)"/><circle cx="294.5" cy="385.5" r="6.5" transform="rotate(0,294.5,385.5)"/><circle cx="294.5" cy="398.5" r="6.5" transform="rotate(0,294.5,398.5)"/><circle cx="294.5" cy="450.5" r="6.5" transform="rotate(0,294.5,450.5)"/><circle cx="294.5" cy="463.5" r="6.5" transform="rotate(0,294.5,463.5)"/><circle cx="307.5" cy="47.5" r="6.5" transform="rotate(0,307.5,47.5)"/><circle cx="307.5" cy="60.5" r="6.5" transform="rotate(0,307.5,60.5)"/><circle cx="307.5" cy="73.5" r="6.5" transform="rotate(0,307.5,73.5)"/><circle cx="307.5" cy="125.5" r="6.5" transform="rotate(0,307.5,125.5)"/><circle cx="307.5" cy="151.5" r="6.5" transform="rotate(0,307.5,151.5)"/><circle cx="307.5" cy="203.5" r="6.5" transform="rotate(0,307.5,203.5)"/><circle cx="307.5" cy="242.5" r="6.5" transform="rotate(0,307.5,242.5)"/><circle cx="307.5" cy="281.5" r="6.5" transform="rotate(0,307.5,281.5)"/><circle cx="307.5" cy="333.5" r="6.5" transform="rotate(0,307.5,333.5)"/><circle cx="307.5" cy="346.5" r="6.5" transform="rotate(0,307.5,346.5)"/><circle cx="307.5" cy="372.5" r="6.5" transform="rotate(0,307.5,372.5)"/><circle cx="307.5" cy="450.5" r="6.5" transform="rotate(0,307.5,450.5)"/><circle cx="307.5" cy="463.5" r="6.5" transform="rotate(0,307.5,463.5)"/><circle cx="320.5" cy="73.5" r="6.5" transform="rotate(0,320.5,73.5)"/><circle cx="320.5" cy="99.5" r="6.5" transform="rotate(0,320.5,99.5)"/><circle cx="320.5" cy="112.5" r="6.5" transform="rotate(0,320.5,112.5)"/><circle cx="320.5" cy="190.5" r="6.5" transform="rotate(0,320.5,190.5)"/><circle cx="320.5" cy="203.5" r="6.5" transform="rotate(0,320.5,203.5)"/><circle cx="320.5" cy="229.5" r="6.5" transform="rotate(0,320.5,229.5)"/><circle cx="320.5" cy="255.5" r="6.5" transform="rotate(0,320.5,255.5)"/><circle cx="320.5" cy="268.5" r="6.5" transform="rotate(0,320.5,268.5)"/><circle cx="320.5" cy="281.5" r="6.5" transform="rotate(0,320.5,281.5)"/><circle cx="320.5" cy="294.5" r="6.5" transform="rotate(0,320.5,294.5)"/><circle cx="320.5" cy="307.5" r="6.5" transform="rotate(0,320.5,307.5)"/><circle cx="320.5" cy="333.5" r="6.5" transform="rotate(0,320.5,333.5)"/><circle cx="320.5" cy="359.5" r="6.5" transform="rotate(0,320.5,359.5)"/><circle cx="320.5" cy="372.5" r="6.5" transform="rotate(0,320.5,372.5)"/><circle cx="320.5" cy="385.5" r="6.5" transform="rotate(0,320.5,385.5)"/><circle cx="320.5" cy="450.5" r="6.5" transform="rotate(0,320.5,450.5)"/><circle cx="320.5" cy="463.5" r="6.5" transform="rotate(0,320.5,463.5)"/><circle cx="333.5" cy="47.5" r="6.5" transform="rotate(0,333.5,47.5)"/><circle cx="333.5" cy="60.5" r="6.5" transform="rotate(0,333.5,60.5)"/><circle cx="333.5" cy="73.5" r="6.5" transform="rotate(0,333.5,73.5)"/><circle cx="333.5" cy="86.5" r="6.5" transform="rotate(0,333.5,86.5)"/><circle cx="333.5" cy="125.5" r="6.5" transform="rotate(0,333.5,125.5)"/><circle cx="333.5" cy="151.5" r="6.5" transform="rotate(0,333.5,151.5)"/><circle cx="333.5" cy="164.5" r="6.5" transform="rotate(0,333.5,164.5)"/><circle cx="333.5" cy="190.5" r="6.5" transform="rotate(0,333.5,190.5)"/><circle cx="333.5" cy="216.5" r="6.5" transform="rotate(0,333.5,216.5)"/><circle cx="333.5" cy="255.5" r="6.5" transform="rotate(0,333.5,255.5)"/><circle cx="333.5" cy="268.5" r="6.5" transform="rotate(0,333.5,268.5)"/><circle cx="333.5" cy="307.5" r="6.5" transform="rotate(0,333.5,307.5)"/><circle cx="333.5" cy="385.5" r="6.5" transform="rotate(0,333.5,385.5)"/><circle cx="333.5" cy="398.5" r="6.5" transform="rotate(0,333.5,398.5)"/><circle cx="333.5" cy="411.5" r="6.5" transform="rotate(0,333.5,411.5)"/><circle cx="333.5" cy="424.5" r="6.5" transform="rotate(0,333.5,424.5)"/><circle cx="333.5" cy="437.5" r="6.5" transform="rotate(0,333.5,437.5)"/><circle cx="333.5" cy="463.5" r="6.5" transform="rotate(0,333.5,463.5)"/><circle cx="346.5" cy="60.5" r="6.5" transform="rotate(0,346.5,60.5)"/><circle cx="346.5" cy="73.5" r="6.5" transform="rotate(0,346.5,73.5)"/><circle cx="346.5" cy="86.5" r="6.5" transform="rotate(0,346.5,86.5)"/><circle cx="346.5" cy="112.5" r="6.5" transform="rotate(0,346.5,112.5)"/><circle cx="346.5" cy="138.5" r="6.5" transform="rotate(0,346.5,138.5)"/><circle cx="346.5" cy="151.5" r="6.5" transform="rotate(0,346.5,151.5)"/><circle cx="346.5" cy="190.5" r="6.5" transform="rotate(0,346.5,190.5)"/><circle cx="346.5" cy="216.5" r="6.5" transform="rotate(0,346.5,216.5)"/><circle cx="346.5" cy="281.5" r="6.5" transform="rotate(0,346.5,281.5)"/><circle cx="346.5" cy="320.5" r="6.5" transform="rotate(0,346.5,320.5)"/><circle cx="346.5" cy="346.5" r="6.5" transform="rotate(0,346.5,346.5)"/><circle cx="346.5" cy="398.5" r="6.5" transform="rotate(0,346.5,398.5)"/><circle cx="346.5" cy="424.5" r="6.5" transform="rotate(0,346.5,424.5)"/><circle cx="346.5" cy="463.5" r="6.5" transform="rotate(0,346.5,463.5)"/><circle cx="359.5" cy="47.5" r="6.5" transform="rotate(0,359.5,47.5)"/><circle cx="359.5" cy="73.5" r="6.5" transform="rotate(0,359.5,73.5)"/><circle cx="359.5" cy="99.5" r="6.5" transform="rotate(0,359.5,99.5)"/><circle cx="359.5" cy="125.5" r="6.5" transform="rotate(0,359.5,125.5)"/><circle cx="359.5" cy="151.5" r="6.5" transform="rotate(0,359.5,151.5)"/><circle cx="359.5" cy="190.5" r="6.5" transform="rotate(0,359.5,190.5)"/><circle cx="359.5" cy="281.5" r="6.5" transform="rotate(0,359.5,281.5)"/><circle cx="359.5" cy="294.5" r="6.5" transform="rotate(0,359.5,294.5)"/><circle cx="359.5" cy="320.5" r="6.5" transform="rotate(0,359.5,320.5)"/><circle cx="359.5" cy="359.5" r="6.5" transform="rotate(0,359.5,359.5)"/><circle cx="359.5" cy="372.5" r="6.5" transform="rotate(0,359.5,372.5)"/><circle cx="359.5" cy="385.5" r="6.5" transform="rotate(0,359.5,385.5)"/><circle cx="359.5" cy="398.5" r="6.5" transform="rotate(0,359.5,398.5)"/><circle cx="359.5" cy="411.5" r="6.5" transform="rotate(0,359.5,411.5)"/><circle cx="359.5" cy="424.5" r="6.5" transform="rotate(0,359.5,424.5)"/><circle cx="359.5" cy="450.5" r="6.5" transform="rotate(0,359.5,450.5)"/><circle cx="359.5" cy="463.5" r="6.5" transform="rotate(0,359.5,463.5)"/><circle cx="372.5" cy="151.5" r="6.5" transform="rotate(0,372.5,151.5)"/><circle cx="372.5" cy="177.5" r="6.5" transform="rotate(0,372.5,177.5)"/><circle cx="372.5" cy="229.5" r="6.5" transform="rotate(0,372.5,229.5)"/><circle cx="372.5" cy="294.5" r="6.5" transform="rotate(0,372.5,294.5)"/><circle cx="372.5" cy="307.5" r="6.5" transform="rotate(0,372.5,307.5)"/><circle cx="372.5" cy="333.5" r="6.5" transform="rotate(0,372.5,333.5)"/><circle cx="372.5" cy="359.5" r="6.5" transform="rotate(0,372.5,359.5)"/><circle cx="372.5" cy="411.5" r="6.5" transform="rotate(0,372.5,411.5)"/><circle cx="372.5" cy="424.5" r="6.5" transform="rotate(0,372.5,424.5)"/><circle cx="372.5" cy="450.5" r="6.5" transform="rotate(0,372.5,450.5)"/><circle cx="372.5" cy="463.5" r="6.5" transform="rotate(0,372.5,463.5)"/><circle cx="385.5" cy="151.5" r="6.5" transform="rotate(0,385.5,151.5)"/><circle cx="385.5" cy="164.5" r="6.5" transform="rotate(0,385.5,164.5)"/><circle cx="385.5" cy="190.5" r="6.5" transform="rotate(0,385.5,190.5)"/><circle cx="385.5" cy="242.5" r="6.5" transform="rotate(0,385.5,242.5)"/><circle cx="385.5" cy="268.5" r="6.5" transform="rotate(0,385.5,268.5)"/><circle cx="385.5" cy="320.5" r="6.5" transform="rotate(0,385.5,320.5)"/><circle cx="385.5" cy="359.5" r="6.5" transform="rotate(0,385.5,359.5)"/><circle cx="385.5" cy="385.5" r="6.5" transform="rotate(0,385.5,385.5)"/><circle cx="385.5" cy="411.5" r="6.5" transform="rotate(0,385.5,411.5)"/><circle cx="385.5" cy="424.5" r="6.5" transform="rotate(0,385.5,424.5)"/><circle cx="385.5" cy="437.5" r="6.5" transform="rotate(0,385.5,437.5)"/><circle cx="398.5" cy="151.5" r="6.5" transform="rotate(0,398.5,151.5)"/><circle cx="398.5" cy="177.5" r="6.5" transform="rotate(0,398.5,177.5)"/><circle cx="398.5" cy="203.5" r="6.5" transform="rotate(0,398.5,203.5)"/><circle cx="398.5" cy="229.5" r="6.5" transform="rotate(0,398.5,229.5)"/><circle cx="398.5" cy="255.5" r="6.5" transform="rotate(0,398.5,255.5)"/><circle cx="398.5" cy="307.5" r="6.5" transform="rotate(0,398.5,307.5)"/><circle cx="398.5" cy="359.5" r="6.5" transform="rotate(0,398.5,359.5)"/><circle cx="398.5" cy="411.5" r="6.5" transform="rotate(0,398.5,411.5)"/><circle cx="398.5" cy="463.5" r="6.5" transform="rotate(0,398.5,463.5)"/><circle cx="411.5" cy="203.5" r="6.5" transform="rotate(0,411.5,203.5)"/><circle cx="411.5" cy="216.5" r="6.5" transform="rotate(0,411.5,216.5)"/><circle cx="411.5" cy="229.5" r="6.5" transform="rotate(0,411.5,229.5)"/><circle cx="411.5" cy="333.5" r="6.5" transform="rotate(0,411.5,333.5)"/><circle cx="411.5" cy="359.5" r="6.5" transform="rotate(0,411.5,359.5)"/><circle cx="411.5" cy="372.5" r="6.5" transform="rotate(0,411.5,372.5)"/><circle cx="411.5" cy="385.5" r="6.5" transform="rotate(0,411.5,385.5)"/><circle cx="411.5" cy="398.5" r="6.5" transform="rotate(0,411.5,398.5)"/><circle cx="411.5" cy="411.5" r="6.5" transform="rotate(0,411.5,411.5)"/><circle cx="411.5" cy="424.5" r="6.5" transform="rotate(0,411.5,424.5)"/><circle cx="424.5" cy="151.5" r="6.5" transform="rotate(0,424.5,151.5)"/><circle cx="424.5" cy="242.5" r="6.5" transform="rotate(0,424.5,242.5)"/><circle cx="424.5" cy="255.5" r="6.5" transform="rotate(0,424.5,255.5)"/><circle cx="424.5" cy="281.5" r="6.5" transform="rotate(0,424.5,281.5)"/><circle cx="424.5" cy="294.5" r="6.5" transform="rotate(0,424.5,294.5)"/><circle cx="424.5" cy="307.5" r="6.5" transform="rotate(0,424.5,307.5)"/><circle cx="424.5" cy="320.5" r="6.5" transform="rotate(0,424.5,320.5)"/><circle cx="424.5" cy="346.5" r="6.5" transform="rotate(0,424.5,346.5)"/><circle cx="424.5" cy="359.5" r="6.5" transform="rotate(0,424.5,359.5)"/><circle cx="424.5" cy="385.5" r="6.5" transform="rotate(0,424.5,385.5)"/><circle cx="424.5" cy="411.5" r="6.5" transform="rotate(0,424.5,411.5)"/><circle cx="424.5" cy="450.5" r="6.5" transform="rotate(0,424.5,450.5)"/><circle cx="437.5" cy="164.5" r="6.5" transform="rotate(0,437.5,164.5)"/><circle cx="437.5" cy="177.5" r="6.5" transform="rotate(0,437.5,177.5)"/><circle cx="437.5" cy="190.5" r="6.5" transform="rotate(0,437.5,190.5)"/><circle cx="437.5" cy="216.5" r="6.5" transform="rotate(0,437.5,216.5)"/><circle cx="437.5" cy="242.5" r="6.5" transform="rotate(0,437.5,242.5)"/><circle cx="437.5" cy="268.5" r="6.5" transform="rotate(0,437.5,268.5)"/><circle cx="437.5" cy="333.5" r="6.5" transform="rotate(0,437.5,333.5)"/><circle cx="437.5" cy="346.5" r="6.5" transform="rotate(0,437.5,346.5)"/><circle cx="437.5" cy="359.5" r="6.5" transform="rotate(0,437.5,359.5)"/><circle cx="437.5" cy="372.5" r="6.5" transform="rotate(0,437.5,372.5)"/><circle cx="437.5" cy="411.5" r="6.5" transform="rotate(0,437.5,411.5)"/><circle cx="437.5" cy="463.5" r="6.5" transform="rotate(0,437.5,463.5)"/><circle cx="450.5" cy="151.5" r="6.5" transform="rotate(0,450.5,151.5)"/><circle cx="450.5" cy="164.5" r="6.5" transform="rotate(0,450.5,164.5)"/><circle cx="450.5" cy="190.5" r="6.5" transform="rotate(0,450.5,190.5)"/><circle cx="450.5" cy="203.5" r="6.5" transform="rotate(0,450.5,203.5)"/><circle cx="450.5" cy="229.5" r="6.5" transform="rotate(0,450.5,229.5)"/><circle cx="450.5" cy="242.5" r="6.5" transform="rotate(0,450.5,242.5)"/><circle cx="450.5" cy="268.5" r="6.5" transform="rotate(0,450.5,268.5)"/><circle cx="450.5" cy="281.5" r="6.5" transform="rotate(0,450.5,281.5)"/><circle cx="450.5" cy="320.5" r="6.5" transform="rotate(0,450.5,320.5)"/><circle cx="450.5" cy="359.5" r="6.5" transform="rotate(0,450.5,359.5)"/><circle cx="450.5" cy="372.5" r="6.5" transform="rotate(0,450.5,372.5)"/><circle cx="463.5" cy="190.5" r="6.5" transform="rotate(0,463.5,190.5)"/><circle cx="463.5" cy="203.5" r="6.5" transform="rotate(0,463.5,203.5)"/><circle cx="463.5" cy="216.5" r="6.5" transform="rotate(0,463.5,216.5)"/><circle cx="463.5" cy="255.5" r="6.5" transform="rotate(0,463.5,255.5)"/><circle cx="463.5" cy="268.5" r="6.5" transform="rotate(0,463.5,268.5)"/><circle cx="463.5" cy="281.5" r="6.5" transform="rotate(0,463.5,281.5)"/><circle cx="463.5" cy="320.5" r="6.5" transform="rotate(0,463.5,320.5)"/><circle cx="463.5" cy="359.5" r="6.5" transform="rotate(0,463.5,359.5)"/><circle cx="463.5" cy="372.5" r="6.5" transform="rotate(0,463.5,372.5)"/><circle cx="463.5" cy="411.5" r="6.5" transform="rotate(0,463.5,411.5)"/><circle cx="463.5" cy="424.5" r="6.5" transform="rotate(0,463.5,424.5)"/><circle cx="463.5" cy="450.5" r="6.5" transform="rotate(0,463.5,450.5)"/></clipPath><clipPath id="clip-path-corners-square-color-0-0"><circle cx="47.5" cy="47.5" r="6.5" transform="rotate(0,47.5,47.5)"/><circle cx="47.5" cy="60.5" r="6.5" transform="rotate(0,47.5,60.5)"/><circle cx="47.5" cy="73.5" r="6.5" transform="rotate(0,47.5,73.5)"/><circle cx="47.5" cy="86.5" r="6.5" transform="rotate(0,47.5,86.5)"/><circle cx="47.5" cy="99.5" r="6.5" transform="rotate(0,47.5,99.5)"/><circle cx="47.5" cy="112.5" r="6.5" transform="rotate(0,47.5,112.5)"/><circle cx="47.5" cy="125.5" r="6.5" transform="rotate(0,47.5,125.5)"/><circle cx="60.5" cy="47.5" r="6.5" transform="rotate(0,60.5,47.5)"/><circle cx="60.5" cy="125.5" r="6.5" transform="rotate(0,60.5,125.5)"/><circle cx="73.5" cy="47.5" r="6.5" transform="rotate(0,73.5,47.5)"/><circle cx="73.5" cy="125.5" r="6.5" transform="rotate(0,73.5,125.5)"/><circle cx="86.5" cy="47.5" r="6.5" transform="rotate(0,86.5,47.5)"/><circle cx="86.5" cy="125.5" r="6.5" transform="rotate(0,86.5,125.5)"/><circle cx="99.5" cy="47.5" r="6.5" transform="rotate(0,99.5,47.5)"/><circle cx="99.5" cy="125.5" r="6.5" transform="rotate(0,99.5,125.5)"/><circle cx="112.5" cy="47.5" r="6.5" transform="rotate(0,112.5,47.5)"/><circle cx="112.5" cy="125.5" r="6.5" transform="rotate(0,112.5,125.5)"/><circle cx="125.5" cy="47.5" r="6.5" transform="rotate(0,125.5,47.5)"/><circle cx="125.5" cy="60.5" r="6.5" transform="rotate(0,125.5,60.5)"/><circle cx="125.5" cy="73.5" r="6.5" transform="rotate(0,125.5,73.5)"/><circle cx="125.5" cy="86.5" r="6.5" transform="rotate(0,125.5,86.5)"/><circle cx="125.5" cy="99.5" r="6.5" transform="rotate(0,125.5,99.5)"/><circle cx="125.5" cy="112.5" r="6.5" transform="rotate(0,125.5,112.5)"/><circle cx="125.5" cy="125.5" r="6.5" transform="rotate(0,125.5,125.5)"/></clipPath><clipPath id="clip-path-corners-dot-color-0-0"><circle cx="73.5" cy="73.5" r="6.5" transform="rotate(0,73.5,73.5)"/><circle cx="73.5" cy="86.5" r="6.5" transform="rotate(0,73.5,86.5)"/><circle cx="73.5" cy="99.5" r="6.5" transform="rotate(0,73.5,99.5)"/><circle cx="86.5" cy="73.5" r="6.5" transform="rotate(0,86.5,73.5)"/><circle cx="86.5" cy="86.5" r="6.5" transform="rotate(0,86.5,86.5)"/><circle cx="86.5" cy="99.5" r="6.5" transform="rotate(0,86.5,99.5)"/><circle cx="99.5" cy="73.5" r="6.5" transform="rotate(0,99.5,73.5)"/><circle cx="99.5" cy="86.5" r="6.5" transform="rotate(0,99.5,86.5)"/><circle cx="99.5" cy="99.5" r="6.5" transform="rotate(0,99.5,99.5)"/></clipPath><clipPath id="clip-path-corners-square-color-1-0"><circle cx="385.5" cy="47.5" r="6.5" transform="rotate(0,385.5,47.5)"/><circle cx="385.5" cy="60.5" r="6.5" transform="rotate(0,385.5,60.5)"/><circle cx="385.5" cy="73.5" r="6.5" transform="rotate(0,385.5,73.5)"/><circle cx="385.5" cy="86.5" r="6.5" transform="rotate(0,385.5,86.5)"/><circle cx="385.5" cy="99.5" r="6.5" transform="rotate(0,385.5,99.5)"/><circle cx="385.5" cy="112.5" r="6.5" transform="rotate(0,385.5,112.5)"/><circle cx="385.5" cy="125.5" r="6.5" transform="rotate(0,385.5,125.5)"/><circle cx="398.5" cy="47.5" r="6.5" transform="rotate(0,398.5,47.5)"/><circle cx="398.5" cy="125.5" r="6.5" transform="rotate(0,398.5,125.5)"/><circle cx="411.5" cy="47.5" r="6.5" transform="rotate(0,411.5,47.5)"/><circle cx="411.5" cy="125.5" r="6.5" transform="rotate(0,411.5,125.5)"/><circle cx="424.5" cy="47.5" r="6.5" transform="rotate(0,424.5,47.5)"/><circle cx="424.5" cy="125.5" r="6.5" transform="rotate(0,424.5,125.5)"/><circle cx="437.5" cy="47.5" r="6.5" transform="rotate(0,437.5,47.5)"/><circle cx="437.5" cy="125.5" r="6.5" transform="rotate(0,437.5,125.5)"/><circle cx="450.5" cy="47.5" r="6.5" transform="rotate(0,450.5,47.5)"/><circle cx="450.5" cy="125.5" r="6.5" transform="rotate(0,450.5,125.5)"/><circle cx="463.5" cy="47.5" r="6.5" transform="rotate(0,463.5,47.5)"/><circle cx="463.5" cy="60.5" r="6.5" transform="rotate(0,463.5,60.5)"/><circle cx="463.5" cy="73.5" r="6.5" transform="rotate(0,463.5,73.5)"/><circle cx="463.5" cy="86.5" r="6.5" transform="rotate(0,463.5,86.5)"/><circle cx="463.5" cy="99.5" r="6.5" transform="rotate(0,463.5,99.5)"/><circle cx="463.5" cy="112.5" r="6.5" transform="rotate(0,463.5,112.5)"/><circle cx="463.5" cy="125.5" r="6.5" transform="rotate(0,463.5,125.5)"/></clipPath><clipPath id="clip-path-corners-dot-color-1-0"><circle cx="411.5" cy="73.5" r="6.5" transform="rotate(0,411.5,73.5)"/><circle cx="411.5" cy="86.5" r="6.5" transform="rotate(0,411.5,86.5)"/><circle cx="411.5" cy="99.5" r="6.5" transform="rotate(0,411.5,99.5)"/><circle cx="424.5" cy="73.5" r="6.5" transform="rotate(0,424.5,73.5)"/><circle cx="424.5" cy="86.5" r="6.5" transform="rotate(0,424.5,86.5)"/><circle cx="424.5" cy="99.5" r="6.5" transform="rotate(0,424.5,99.5)"/><circle cx="437.5" cy="73.5" r="6.5" transform="rotate(0,437.5,73.5)"/><circle cx="437.5" cy="86.5" r="6.5" transform="rotate(0,437.5,86.5)"/><circle cx="437.5" cy="99.5" r="6.5" transform="rotate(0,437.5,99.5)"/></clipPath><clipPath id="clip-path-corners-square-color-0-1"><circle cx="47.5" cy="385.5" r="6.5" transform="rotate(0,47.5,385.5)"/><circle cx="47.5" cy="398.5" r="6.5" transform="rotate(0,47.5,398.5)"/><circle cx="47.5" cy="411.5" r="6.5" transform="rotate(0,47.5,411.5)"/><circle cx="47.5" cy="424.5" r="6.5" transform="rotate(0,47.5,424.5)"/><circle cx="47.5" cy="437.5" r="6.5" transform="rotate(0,47.5,437.5)"/><circle cx="47.5" cy="450.5" r="6.5" transform="rotate(0,47.5,450.5)"/><circle cx="47.5" cy="463.5" r="6.5" transform="rotate(0,47.5,463.5)"/><circle cx="60.5" cy="385.5" r="6.5" transform="rotate(0,60.5,385.5)"/><circle cx="60.5" cy="463.5" r="6.5" transform="rotate(0,60.5,463.5)"/><circle cx="73.5" cy="385.5" r="6.5" transform="rotate(0,73.5,385.5)"/><circle cx="73.5" cy="463.5" r="6.5" transform="rotate(0,73.5,463.5)"/><circle cx="86.5" cy="385.5" r="6.5" transform="rotate(0,86.5,385.5)"/><circle cx="86.5" cy="463.5" r="6.5" transform="rotate(0,86.5,463.5)"/><circle cx="99.5" cy="385.5" r="6.5" transform="rotate(0,99.5,385.5)"/><circle cx="99.5" cy="463.5" r="6.5" transform="rotate(0,99.5,463.5)"/><circle cx="112.5" cy="385.5" r="6.5" transform="rotate(0,112.5,385.5)"/><circle cx="112.5" cy="463.5" r="6.5" transform="rotate(0,112.5,463.5)"/><circle cx="125.5" cy="385.5" r="6.5" transform="rotate(0,125.5,385.5)"/><circle cx="125.5" cy="398.5" r="6.5" transform="rotate(0,125.5,398.5)"/><circle cx="125.5" cy="411.5" r="6.5" transform="rotate(0,125.5,411.5)"/><circle cx="125.5" cy="424.5" r="6.5" transform="rotate(0,125.5,424.5)"/><circle cx="125.5" cy="437.5" r="6.5" transform="rotate(0,125.5,437.5)"/><circle cx="125.5" cy="450.5" r="6.5" transform="rotate(0,125.5,450.5)"/><circle cx="125.5" cy="463.5" r="6.5" transform="rotate(0,125.5,463.5)"/></clipPath><clipPath id="clip-path-corners-dot-color-0-1"><circle cx="73.5" cy="411.5" r="6.5" transform="rotate(0,73.5,411.5)"/><circle cx="73.5" cy="424.5" r="6.5" transform="rotate(0,73.5,424.5)"/><circle cx="73.5" cy="437.5" r="6.5" transform="rotate(0,73.5,437.5)"/><circle cx="86.5" cy="411.5" r="6.5" transform="rotate(0,86.5,411.5)"/><circle cx="86.5" cy="424.5" r="6.5" transform="rotate(0,86.5,424.5)"/><circle cx="86.5" cy="437.5" r="6.5" transform="rotate(0,86.5,437.5)"/><circle cx="99.5" cy="411.5" r="6.5" transform="rotate(0,99.5,411.5)"/><circle cx="99.5" cy="424.5" r="6.5" transform="rotate(0,99.5,424.5)"/><circle cx="99.5" cy="437.5" r="6.5" transform="rotate(0,99.5,437.5)"/></clipPath></defs><rect x="0" y="0" height="512" width="512" clip-path="url('#clip-path-background-color')" fill="none"/><rect x="41" y="41" height="429" width="429" clip-path="url('#clip-path-dot-color')" fill="#d0cdc5"/><rect x="41" y="41" height="91" width="91" clip-path="url('#clip-path-corners-square-color-0-0')" fill="#d0cdc5"/><rect x="67" y="67" height="39" width="39" clip-path="url('#clip-path-corners-dot-color-0-0')" fill="#d0cdc5"/><rect x="379" y="41" height="91" width="91" clip-path="url('#clip-path-corners-square-color-1-0')" fill="#d0cdc5"/><rect x="405" y="67" height="39" width="39" clip-path="url('#clip-path-corners-dot-color-1-0')" fill="#d0cdc5"/><rect x="41" y="379" height="91" width="91" clip-path="url('#clip-path-corners-square-color-0-1')" fill="#d0cdc5"/><rect x="67" y="405" height="39" width="39" clip-path="url('#clip-path-corners-dot-color-0-1')" fill="#d0cdc5"/></svg>